<?xml version="1.0" standalone="no"?>
<!DOCTYPE svg PUBLIC "-//W3C//DTD SVG 20010904//EN"
 "http://www.w3.org/TR/2001/REC-SVG-20010904/DTD/svg10.dtd">
<svg version="1.0" xmlns="http://www.w3.org/2000/svg"
 width="260.000000pt" height="260.000000pt" viewBox="0 0 260.000000 260.000000"
 preserveAspectRatio="xMidYMid meet">
<metadata>
Created by potrace 1.14, written by Peter Selinger 2001-2017
</metadata>
<g transform="translate(0.000000,260.000000) scale(0.100000,-0.100000)"
fill="#000000" stroke="none">
<path d="M1200 2090 c0 -3 -14 -7 -32 -8 -18 -2 -36 -8 -40 -15 -4 -6 -10 -8
-14 -5 -3 4 -13 1 -20 -7 -8 -7 -23 -11 -34 -8 -11 3 -20 0 -20 -6 0 -6 -9
-11 -20 -11 -11 0 -20 -4 -20 -10 0 -5 -7 -7 -15 -4 -8 4 -15 1 -15 -5 0 -6
-7 -11 -15 -11 -8 0 -15 -4 -15 -10 0 -5 -5 -10 -12 -10 -6 0 -29 -18 -49 -40
-21 -22 -43 -40 -49 -40 -6 0 -9 -4 -6 -9 3 -5 -10 -25 -29 -45 -19 -20 -43
-57 -54 -82 -11 -24 -26 -47 -33 -49 -8 -3 -15 -17 -16 -32 -1 -15 -11 -45
-22 -68 -11 -23 -20 -56 -20 -73 0 -18 -3 -32 -8 -32 -4 0 -9 -28 -10 -62 -2
-35 -4 -98 -6 -140 -2 -43 -1 -78 3 -78 4 0 6 -26 6 -57 -1 -39 5 -68 17 -87
9 -16 15 -33 12 -37 -2 -4 5 -24 16 -43 11 -20 18 -36 15 -36 -5 0 54 -101 64
-110 4 -3 24 -25 46 -50 22 -25 41 -44 43 -42 2 2 15 -10 30 -25 27 -28 120
-80 134 -76 4 2 8 -2 8 -7 0 -6 11 -10 25 -10 14 0 25 -5 25 -11 0 -6 9 -9 19
-6 11 3 22 -1 25 -8 2 -8 15 -11 30 -8 14 3 26 1 26 -5 0 -5 11 -12 25 -14 14
-3 25 -2 25 1 0 3 39 5 87 3 49 -1 97 -2 108 -2 11 1 27 2 35 2 8 0 20 4 25 9
6 4 23 6 37 5 17 -2 29 3 33 12 3 8 8 12 12 9 3 -4 19 3 34 14 16 11 29 18 29
15 0 -6 28 16 56 42 8 7 14 10 14 5 0 -4 6 -1 13 8 7 9 22 21 35 28 12 6 22
18 22 25 0 7 20 35 45 62 25 28 45 59 45 72 0 12 7 25 15 28 8 3 17 21 21 40
3 19 10 34 15 34 5 0 9 7 9 15 0 8 3 15 8 15 4 0 8 11 9 25 1 14 4 36 5 50 1
14 6 25 10 25 4 0 8 11 8 25 0 14 5 25 10 25 6 0 8 13 5 31 -3 17 0 37 6 45 8
9 9 29 4 57 -3 23 -8 72 -9 109 -1 37 -5 70 -9 74 -4 4 -7 17 -7 29 0 12 -3
25 -7 29 -5 4 -8 17 -9 29 -1 12 -7 36 -14 52 -7 17 -14 32 -15 35 -8 33 -22
62 -46 98 -16 23 -32 54 -35 67 -3 14 -10 25 -16 25 -5 0 -20 10 -33 23 -44
42 -80 70 -112 90 -18 10 -33 24 -33 29 0 6 -7 8 -15 4 -8 -3 -15 -2 -15 2 0
15 -102 63 -134 64 -17 0 -35 3 -41 7 -13 8 -225 9 -225 1z"/>
</g>
</svg>
